name c:\Users\T11648sTb\Documents\VSCODE\Pred_Sim_Sprinting\Pred_Sim_Sprinting\MainFunctions\ExperimentalData\IK_Splined\Splined_500_meshInts_p02_maxVel_01.mot
datacolumns 38
datarows 15
range 0.16822445 0.16986008
endheader
                time	/jointset/ground_pelvis/pelvis_tilt/value	/jointset/ground_pelvis/pelvis_list/value	/jointset/ground_pelvis/pelvis_rotation/value	/jointset/ground_pelvis/pelvis_tx/value	/jointset/ground_pelvis/pelvis_ty/value	/jointset/ground_pelvis/pelvis_tz/value	/jointset/hip_r/hip_flexion_r/value	/jointset/hip_r/hip_adduction_r/value	/jointset/hip_r/hip_rotation_r/value	/jointset/knee_r/knee_angle_r/value	/jointset/ankle_r/ankle_angle_r/value	/jointset/subtalar_r/subtalar_angle_r/value	/jointset/mtp_r/mtp_angle_r/value	/jointset/hip_l/hip_flexion_l/value	/jointset/hip_l/hip_adduction_l/value	/jointset/hip_l/hip_rotation_l/value	/jointset/knee_l/knee_angle_l/value	/jointset/ankle_l/ankle_angle_l/value	/jointset/subtalar_l/subtalar_angle_l/value	/jointset/mtp_l/mtp_angle_l/value	/jointset/back/lumbar_extension/value	/jointset/back/lumbar_bending/value	/jointset/back/lumbar_rotation/value	/jointset/acromial_r/arm_flex_r/value	/jointset/acromial_r/arm_add_r/value	/jointset/acromial_r/arm_rot_r/value	/jointset/elbow_r/elbow_flex_r/value	/jointset/radioulnar_r/pro_sup_r/value	/jointset/radius_hand_r/wrist_flex_r/value	/jointset/radius_hand_r/wrist_dev_r/value	/jointset/acromial_l/arm_flex_l/value	/jointset/acromial_l/arm_add_l/value	/jointset/acromial_l/arm_rot_l/value	/jointset/elbow_l/elbow_flex_l/value	/jointset/radioulnar_l/pro_sup_l/value	/jointset/radius_hand_l/wrist_flex_l/value	/jointset/radius_hand_l/wrist_dev_l/value	
          0.16822445	         -6.06788793	          8.58463497	          0.31502877	         -0.73665088	          0.96947299	          0.30635687	        -22.06705210	         -8.27104063	         -4.38489871	        -28.04883455	        -39.11381731	        -11.60870292	         -0.83994704	         85.67674938	          8.65038745	         -5.13720650	        -87.63481481	         -4.02373590	        -11.10246185	          6.47902801	          1.12373416	        -15.30049996	         -1.45855719	         48.40664784	         -8.56080333	         34.58166630	        138.67811935	         61.45591298	        -17.90570432	         14.95689564	        -82.79994462	         -0.04460284	        -49.87732976	         63.15933543	         66.17312524	          6.98304563	         23.48364479	
          0.16829391	         -6.07506210	          8.57953850	          0.33177699	         -0.73597100	          0.96950606	          0.30635101	        -22.06498719	         -8.25614631	         -4.38382294	        -28.08351027	        -39.11724929	        -11.56013141	         -0.83986961	         85.66491985	          8.66420750	         -5.11785922	        -87.54958518	         -4.02982052	        -11.10359491	          6.46994353	          1.12831811	        -15.30040882	         -1.46882188	         48.40894305	         -8.56761724	         34.57758199	        138.71300804	         61.45381941	        -17.90937770	         14.95745474	        -82.79498772	         -0.03669451	        -49.89616269	         63.16714236	         66.15459564	          6.98570204	         23.48427399	
          0.16851339	         -6.09740293	          8.56337383	          0.38422639	         -0.73382382	          0.96961127	          0.30633312	        -22.05804643	         -8.20919824	         -4.38027496	        -28.19419980	        -39.12633845	        -11.40680848	         -0.83847972	         85.62659057	          8.70736246	         -5.05663536	        -87.27990242	         -4.04911412	        -11.10659684	          6.44142046	          1.14228144	        -15.30010889	         -1.50087718	         48.41549821	         -8.58922496	         34.56428261	        138.82308310	         61.44711432	        -17.92085653	         14.95922751	        -82.77859576	         -0.01193154	        -49.95544901	         63.19163514	         66.09622160	          6.99404374	         23.48622360	
          0.16867245	         -6.11328441	          8.55160266	          0.42179736	         -0.73226856	          0.96968818	          0.30632077	        -22.05262370	         -8.17528368	         -4.37757414	        -28.27548892	        -39.13128626	        -11.29585203	         -0.83640584	         85.59790900	          8.73815781	         -5.01217543	        -87.08408071	         -4.06316209	        -11.10822538	          6.42092085	          1.15190836	        -15.29988273	         -1.52375239	         48.41958677	         -8.60496345	         34.55427658	        138.90270848	         61.44216392	        -17.92905554	         14.96051809	        -82.76602547	          0.00580110	        -49.99820903	         63.20922440	         66.05407824	          7.00004140	         23.48760053	
          0.16867335	         -6.11337332	          8.55153609	          0.42200837	         -0.73225978	          0.96968862	          0.30632070	        -22.05259217	         -8.17509253	         -4.37755862	        -28.27595027	        -39.13131033	        -11.29522621	         -0.83639163	         85.59774496	          8.73833049	         -5.01192428	        -87.08297455	         -4.06324154	        -11.10823327	          6.42080556	          1.15196152	        -15.29988144	         -1.52388066	         48.41960826	         -8.60505248	         34.55421924	        138.90315755	         61.44213575	        -17.92910153	         14.96052538	        -82.76595288	          0.00590067	        -49.99844989	         63.20932330	         66.05384076	          7.00007514	         23.48760822	
          0.16874281	         -6.12022648	          8.54638151	          0.43829915	         -0.73158083	          0.96972238	          0.30631546	        -22.05012059	         -8.16031268	         -4.37634798	        -28.31173185	        -39.13304244	        -11.24682227	         -0.83520812	         85.58498040	          8.75165209	         -4.99248551	        -86.99736106	         -4.06939352	        -11.10879956	          6.41189950	          1.15603486	        -15.29978103	         -1.53377583	         48.42121758	         -8.61194734	         34.54975394	        138.93788990	         61.43994836	        -17.93265034	         14.96109048	        -82.76028081	          0.01358724	        -50.01706800	         63.21696247	         66.03547994	          7.00268183	         23.48820006	
          0.16896228	         -6.14155370	          8.53004225	          0.48931285	         -0.72943655	          0.96982973	          0.30629955	        -22.04190451	         -8.11374074	         -4.37241191	        -28.42590281	        -39.13684414	        -11.09411613	         -0.83038942	         85.54370320	          8.79324474	         -4.93097680	        -86.72647054	         -4.08889939	        -11.11001636	          6.38394414	          1.16838760	        -15.29945999	         -1.56466742	         48.42560339	         -8.63382293	         34.53527393	        139.04747091	         61.43293034	        -17.94373842	         14.96288172	        -82.74163868	          0.03764515	        -50.07567433	         63.24093592	         65.97763819	          7.01086940	         23.49003294	
          0.16912135	         -6.15670118	          8.51815307	          0.52585245	         -0.72788336	          0.96990818	          0.30628861	        -22.03556662	         -8.08011251	         -4.36946596	        -28.50970304	        -39.13803913	        -10.98368965	         -0.82589315	         85.51289120	          8.82291978	         -4.88631444	        -86.52977834	         -4.10310064	        -11.11035648	          6.36385977	          1.17684984	        -15.29922629	         -1.58670290	         48.42811762	         -8.64976704	         34.52443423	        139.12673818	         61.42773751	        -17.95165694	         14.96418526	        -82.72744660	          0.05486263	        -50.11794036	         63.25815898	         65.93587968	          7.01675817	         23.49132652	
          0.16912224	         -6.15678594	          8.51808586	          0.52605766	         -0.72787460	          0.96990863	          0.30628855	        -22.03552994	         -8.07992301	         -4.36944913	        -28.51017854	        -39.13804220	        -10.98306702	         -0.82586542	         85.51271515	          8.82308616	         -4.88606215	        -86.52866729	         -4.10318095	        -11.11035711	          6.36374683	          1.17689643	        -15.29922497	         -1.58682643	         48.42813022	         -8.64985726	         34.52437223	        139.12718523	         61.42770793	        -17.95170136	         14.96419263	        -82.72736488	          0.05495929	        -50.11817843	         63.25825584	         65.93564436	          7.01679130	         23.49133374	
          0.16919171	         -6.16331872	          8.51288201	          0.54190047	         -0.72719654	          0.96994306	          0.30628393	        -22.03266113	         -8.06527185	         -4.36814104	        -28.54705353	        -39.13815650	        -10.93491656	         -0.82364069	         85.49902184	          8.83592170	         -4.86653604	        -86.44267494	         -4.10939972	        -11.11036216	          6.35502311	          1.18046184	        -15.29912333	         -1.59635586	         48.42905147	         -8.65684497	         34.51954870	        139.16176117	         61.42541051	        -17.95512839	         14.96476327	        -82.72098696	          0.06241978	        -50.13658050	         63.26573779	         65.91745135	          7.01935119	         23.49188951	
          0.16941118	         -6.18363431	          8.49639607	          0.59150839	         -0.72505507	          0.97005251	          0.30626992	        -22.02319954	         -8.01912099	         -4.36393513	        -28.66466656	        -39.13693004	        -10.78309868	         -0.81559812	         85.45481655	          8.87599120	         -4.80475561	        -86.17059247	         -4.12911603	        -11.10981133	          6.32764788	          1.19121247	        -15.29880656	         -1.62609568	         48.43126105	         -8.67902602	         34.50396000	        139.27084794	         61.41802838	        -17.96583455	         14.96657158	        -82.70012414	          0.08575897	        -50.19450300	         63.28922522	         65.86013882	          7.02739385	         23.49360975	
          0.16957024	         -6.19804922	          8.48440912	          0.62703831	         -0.72350388	          0.97013247	          0.30626034	        -22.01596808	         -7.98581167	         -4.36082973	        -28.75094940	        -39.13456012	        -10.67339891	         -0.80882798	         85.42188847	          8.90457430	         -4.75990033	        -85.97304126	         -4.14346923	        -11.10887571	          6.30798775	          1.19851618	        -15.29858371	         -1.64730005	         48.43219596	         -8.69520300	         34.49233876	        139.34975694	         61.41255600	        -17.97347897	         14.96788707	        -82.68433163	          0.10245138	        -50.23627226	         63.30610623	         65.81876291	          7.03318041	         23.49482293	
          0.16957114	         -6.19812984	          8.48434138	          0.62723784	         -0.72349513	          0.97013292	          0.30626029	        -22.01592638	         -7.98562401	         -4.36081209	        -28.75143889	        -39.13454327	        -10.67278057	         -0.80878756	         85.42170050	          8.90473455	         -4.75964697	        -85.97192537	         -4.14355040	        -11.10886916	          6.30787722	          1.19855624	        -15.29858247	         -1.64741891	         48.43219965	         -8.69529456	         34.49227241	        139.35020197	         61.41252481	        -17.97352185	         14.96789450	        -82.68424090	          0.10254507	        -50.23650752	         63.30620118	         65.81852976	          7.03321297	         23.49482970	
          0.16964061	         -6.20434287	          8.47909710	          0.64264215	         -0.72281795	          0.97016801	          0.30625625	        -22.01266977	         -7.97111576	         -4.35944397	        -28.78939484	        -39.13312182	        -10.62496951	         -0.80558648	         85.40708470	          8.91709642	         -4.74003768	        -85.88555916	         -4.14983539	        -11.10831852	          6.29933977	          1.20161641	        -15.29848763	         -1.65658636	         48.43243065	         -8.70238701	         34.48711342	        139.38462144	         61.41010115	        -17.97682990	         14.96847024	        -82.67716647	          0.10977515	        -50.25469234	         63.31353646	         65.80050358	          7.03572898	         23.49535069	
          0.16986008	         -6.22364880	          8.46249241	          0.69087421	         -0.72067919	          0.97027951	          0.30624408	        -22.00199249	         -7.92543092	         -4.35508643	        -28.91041061	        -39.12712648	        -10.47431134	         -0.79452496	         85.35997113	          8.95568191	         -4.67799865	        -85.61230057	         -4.16976031	        -11.10601755	          6.27255710	          1.21077341	        -15.29820051	         -1.68518633	         48.43245712	         -8.72491111	         34.47048796	        139.49321376	         61.40230369	        -17.98716297	         14.97029423	        -82.65411243	          0.13238196	        -50.31192717	         63.33657119	         65.74371719	          7.04363595	         23.49696236	
